<svg id="レイヤー_1" data-name="レイヤー 1" xmlns="http://www.w3.org/2000/svg" viewBox="0 0 700 504.67"><defs><style>.cls-1{fill:#231815;}</style></defs><path class="cls-1" d="M511.39,293.72l-.25-.16-64.11-40,1.6-77.59.25-.14,65.73-37.32.26.16,64.11,40-1.61,77.59-.24.14ZM448,253l63.38,39.55,65-36.89L578,179.22l-63.38-39.55-65,36.89Z"/><path class="cls-1" d="M183.05,412.29l-.26-.16-64.11-40,1.61-77.59.24-.14,65.74-37.32.25.16,64.12,40L249,374.84l-.25.13Zm-63.36-40.71,63.38,39.55,65-36.88,1.59-76.46-63.39-39.54-65,36.88Z"/><rect class="cls-1" x="565.38" y="187.16" width="1.04" height="60.88"/><rect class="cls-1" x="489.69" y="234.01" width="1.01" height="57.25" transform="translate(14.35 550.45) rotate(-59.35)"/><rect class="cls-1" x="461.58" y="170.92" width="57.25" height="1" transform="translate(-18.86 274.08) rotate(-30.68)"/><rect class="cls-1" x="376.15" y="276.72" width="78.53" height="1" transform="translate(-83.35 251.56) rotate(-30.77)"/><rect class="cls-1" x="348.33" y="238.74" width="1" height="76.96" transform="translate(-69.62 430.31) rotate(-58.57)"/><rect class="cls-1" x="242.99" y="274.9" width="78.53" height="1" transform="translate(-101.16 183.18) rotate(-30.77)"/><rect class="cls-1" x="133.29" y="301.62" width="1.04" height="60.88"/><rect class="cls-1" x="209" y="258.41" width="1.01" height="57.25" transform="translate(-144.23 320.94) rotate(-59.35)"/><rect class="cls-1" x="180.89" y="377.74" width="57.25" height="1" transform="translate(-163.65 159.82) rotate(-30.68)"/><rect class="cls-1" x="341.92" y="256.32" width="1.05" height="63.47" transform="translate(-79.38 437.4) rotate(-59.57)"/><rect class="cls-1" x="97.39" y="257.17" width="1" height="51.5" transform="translate(-195.76 224.65) rotate(-59.69)"/><rect class="cls-1" x="184.61" y="411.71" width="1" height="50.44"/><rect class="cls-1" x="600.86" y="241.27" width="1" height="51.16" transform="translate(71.96 657.46) rotate(-60.35)"/><rect class="cls-1" x="575.78" y="167.16" width="51.16" height="1" transform="translate(-4.28 319.13) rotate(-29.62)"/><path class="cls-1" d="M697.9,121.49V157h-7.36V143.46H676.78V157h-7.36V121.49h7.36v15.82h13.76V121.49Z"/><path class="cls-1" d="M634.94,124.6q4-4.14,11.6-4.14t11.6,4.14q5.39,5.09,5.39,14.63,0,9.75-5.39,14.63-4,4.14-11.6,4.14t-11.6-4.14q-5.36-4.89-5.36-14.63Q629.58,129.68,634.94,124.6Zm4.58,5.42c-1.72,2.16-2.59,5.23-2.59,9.21s.87,7,2.59,9.19a8.48,8.48,0,0,0,7,3.25,8.61,8.61,0,0,0,7-3.23q2.63-3.24,2.62-9.21T653.55,130a8.61,8.61,0,0,0-7-3.23A8.51,8.51,0,0,0,639.52,130Z"/><path class="cls-1" d="M697.21,275.4v35.49h-7.35V297.38H676.09v13.51h-7.35V275.4h7.35v15.82h13.77V275.4Z"/><path class="cls-1" d="M634.25,278.51q4-4.14,11.6-4.14c5.07,0,8.93,1.38,11.61,4.14q5.38,5.08,5.38,14.63,0,9.75-5.38,14.63c-2.68,2.76-6.54,4.14-11.61,4.14s-8.92-1.38-11.6-4.14q-5.36-4.87-5.36-14.63Q628.89,283.58,634.25,278.51Zm4.59,5.43q-2.6,3.22-2.59,9.2t2.59,9.19a8.44,8.44,0,0,0,7,3.25,8.6,8.6,0,0,0,7-3.23q2.63-3.24,2.63-9.21t-2.63-9.2a8.58,8.58,0,0,0-7-3.24A8.46,8.46,0,0,0,638.84,283.94Z"/><path class="cls-1" d="M173.88,471.42q4-4.14,11.61-4.14t11.6,4.14q5.39,5.07,5.38,14.63,0,9.74-5.38,14.63-4,4.14-11.6,4.14t-11.61-4.14q-5.35-4.89-5.36-14.63Q168.52,476.5,173.88,471.42Zm4.59,5.42c-1.73,2.16-2.59,5.22-2.59,9.21s.86,7,2.59,9.19a8.47,8.47,0,0,0,7,3.25,8.58,8.58,0,0,0,7-3.24c1.75-2.15,2.63-5.23,2.63-9.2s-.88-7.05-2.63-9.21a8.58,8.58,0,0,0-7-3.24A8.46,8.46,0,0,0,178.47,476.84Z"/><path class="cls-1" d="M163,468.3v35.49h-7.35V490.28H141.84v13.51h-7.35V468.3h7.35v15.82h13.77V468.3Z"/><path class="cls-1" d="M41.17,240.89q4-4.14,11.61-4.14t11.6,4.14q5.39,5.09,5.38,14.63,0,9.75-5.38,14.63-4,4.14-11.6,4.14t-11.61-4.14q-5.36-4.89-5.35-14.63Q35.82,246,41.17,240.89Zm4.59,5.42q-2.59,3.24-2.59,9.21c0,4,.86,7,2.59,9.19a8.47,8.47,0,0,0,7,3.25,8.6,8.6,0,0,0,7-3.23c1.76-2.16,2.63-5.23,2.63-9.21s-.87-7.05-2.63-9.21a8.6,8.6,0,0,0-7-3.23A8.51,8.51,0,0,0,45.76,246.31Z"/><path class="cls-1" d="M30.26,237.78v35.48H22.9V259.75H9.14v13.51H1.78V237.78H9.14V253.6H22.9V237.78Z"/><polygon class="cls-1" points="193.87 42.65 216 4.31 171.74 4.31 193.87 42.65"/><path class="cls-1" d="M262.09,37V49h-4.35V10.72h4.35V13.8q4.77-3.87,9.27-3.88a9.38,9.38,0,0,1,7.86,3.85q2.91,3.84,2.91,10.56T278.6,35.06a11.08,11.08,0,0,1-8.75,4.13A15.55,15.55,0,0,1,262.09,37Zm0-19.7V33.65A16.86,16.86,0,0,0,269,35.31a7.8,7.8,0,0,0,6.38-2.83c1.53-1.89,2.29-4.55,2.29-8Q277.63,14,270.1,14A12.58,12.58,0,0,0,262.09,17.34Z"/><path class="cls-1" d="M293.21,5.13h-4.92V.61h4.92Zm-.28,33.51h-4.35V10.72h4.35Z"/><path class="cls-1" d="M321.68,36.94a21.34,21.34,0,0,1-8.75,2.35q-6.45,0-10-3.78t-3.57-10.78q0-6.84,3.68-10.78A13,13,0,0,1,313,10a19.6,19.6,0,0,1,8.73,2.3v4.85h-.2q-4.62-3.39-8.62-3.39a8.18,8.18,0,0,0-6.65,2.84q-2.38,2.85-2.38,8.11t2.36,8a8.29,8.29,0,0,0,6.67,2.77q4.13,0,8.62-3.34h.2Z"/><path class="cls-1" d="M339.65,39.29q-7,0-10.82-3.77T325,24.85Q325,18,328.67,14a12.57,12.57,0,0,1,9.77-4.05q5.54,0,8.59,3.32t3.05,9.44v2.4H329.44q0,5,2.73,7.74a10.24,10.24,0,0,0,7.55,2.71,16.65,16.65,0,0,0,9.59-3.34h.2v4.72A27.81,27.81,0,0,1,339.65,39.29Zm-10.21-17.5h16.39q-.21-8.33-7.64-8.33a8.43,8.43,0,0,0-6.08,2.22A9.27,9.27,0,0,0,329.44,21.79Z"/><path class="cls-1" d="M373.11,38.64V35.53a21,21,0,0,1-5.73,3.2,15.81,15.81,0,0,1-4.57.68,8.42,8.42,0,0,1-6.21-2.47,8.54,8.54,0,0,1-2.47-6.28,8.24,8.24,0,0,1,3.67-7.33q3.68-2.46,15.31-2.93v-.84a5.19,5.19,0,0,0-1.73-4.31q-1.72-1.39-6.08-1.4a22.19,22.19,0,0,0-8.52,2h-.2V11.31a33.81,33.81,0,0,1,8.9-1.26q6.19,0,9.08,2.31t2.88,7.18v19.1Zm0-6.64V23.89q-9.21.42-11.85,2a5,5,0,0,0-2.63,4.46c0,3.34,2,5,6.08,5Q368.84,35.41,373.11,32Z"/><path class="cls-1" d="M394.44,39.19q-8.64,0-8.65-9.52V14.27H382.6V10.72h3.22v-8h4.32v8h9.79v3.55h-9.79V27.2c0,2.93.21,4.83.61,5.7a3.87,3.87,0,0,0,1.84,1.9,7.09,7.09,0,0,0,3.16.61,10.88,10.88,0,0,0,4-.89h.15v3.95A23.15,23.15,0,0,1,394.44,39.19Z"/><path class="cls-1" d="M421.66,38.64V35.53a21.12,21.12,0,0,1-5.74,3.2,15.81,15.81,0,0,1-4.57.68,8.38,8.38,0,0,1-6.2-2.47,8.51,8.51,0,0,1-2.48-6.28,8.27,8.27,0,0,1,3.67-7.33q3.68-2.46,15.32-2.93v-.84a5.22,5.22,0,0,0-1.73-4.31c-1.16-.93-3.18-1.4-6.08-1.4a22.19,22.19,0,0,0-8.53,2h-.2V11.31a33.81,33.81,0,0,1,8.9-1.26c4.14,0,7.16.77,9.08,2.31S426,16.29,426,19.54v19.1Zm0-6.64V23.89q-9.23.42-11.85,2a5,5,0,0,0-2.64,4.46c0,3.34,2,5,6.08,5C416,35.41,418.81,34.27,421.66,32Z"/><path class="cls-1" d="M457.25,38.64H452.9V23q0-5.44-1.44-7.21T446.74,14c-2.58,0-5.33,1.2-8.23,3.61v21h-4.35V10.72h4.35v3.36q4.92-4.15,9.72-4.16a8.38,8.38,0,0,1,6.67,2.71c1.57,1.81,2.35,4.41,2.35,7.82Z"/><path class="cls-1" d="M488.54,38.64h-4.35V23q0-5.44-1.43-7.21c-1-1.17-2.53-1.76-4.73-1.76-2.58,0-5.33,1.2-8.23,3.61v21h-4.35V10.72h4.35v3.36q4.92-4.15,9.72-4.16a8.36,8.36,0,0,1,6.67,2.71c1.57,1.81,2.35,4.41,2.35,7.82Z"/><path class="cls-1" d="M507.57,39.41a11.89,11.89,0,0,1-9.42-3.94q-3.45-3.94-3.46-10.77t3.49-10.8a13.09,13.09,0,0,1,18.78,0q3.49,4,3.49,10.82T517,35.49A11.92,11.92,0,0,1,507.57,39.41Zm0-25.78a7.36,7.36,0,0,0-6.2,2.84q-2.17,2.85-2.18,8.23t2.18,8.16a8.19,8.19,0,0,0,12.4,0Q515.95,30,516,24.7,516,13.63,507.57,13.63Z"/><path class="cls-1" d="M531.2,38.64h-4.35V-.26h4.35Z"/></svg>