<svg xmlns="http://www.w3.org/2000/svg" viewBox="0 0 100.27 24"><defs><style>.cls-1{fill:#121212;}</style></defs><title>アセット 1</title><g id="レイヤー_2" data-name="レイヤー 2"><g id="Design"><path class="cls-1" d="M32,16.86l1.74-1.95a5.43,5.43,0,0,0,3.69,1.63c1.42,0,2.8-.73,2.79-2,0-1.49-1.76-2.29-3.86-3.48C34,9.66,32.63,8.54,32.62,6.54c0-2.34,2-4.36,5.16-4.35A5.92,5.92,0,0,1,42.26,4L40.65,5.74A4,4,0,0,0,37.9,4.61c-1.45,0-2.5.78-2.5,1.87s1.33,1.83,3.46,3.09c2.75,1.6,4.22,2.79,4.21,5,0,2.66-2.19,4.58-5.56,4.59A7.36,7.36,0,0,1,32,16.86Z"/><path class="cls-1" d="M57.18,12.58c0,4-2.1,6.54-5.53,6.55a4.69,4.69,0,0,1-3.58-1.43V24h-2.8V6.63h2.61V8.05A4.65,4.65,0,0,1,51.8,6.24C55,6.23,57.18,8.68,57.18,12.58Zm-2.75.09c0-2.46-1-4.33-3.14-4.33-1.77,0-3.22,1.27-3.22,3.78v1.15c0,2.61,1.48,3.76,3.2,3.76C53.22,17,54.43,15.31,54.43,12.67Z"/><path class="cls-1" d="M59.72,6.63h2.8V18.78h-2.8Z"/><path class="cls-1" d="M77.58,12.58c0,4-2.11,6.54-5.54,6.55a4.59,4.59,0,0,1-3.76-1.65v1.3H65.66V1.38h2.8V7.82a4.71,4.71,0,0,1,3.73-1.58C75.39,6.23,77.58,8.68,77.58,12.58Zm-2.75.09c0-2.46-1.06-4.33-3.15-4.33-1.77,0-3.22,1.27-3.22,3.78v1.15c0,2.61,1.48,3.76,3.2,3.76C73.62,17,74.83,15.31,74.83,12.67Z"/><path class="cls-1" d="M86,16.83a8.87,8.87,0,0,0,3.34-.76L90,18a9.19,9.19,0,0,1-4.31,1.1c-3.82,0-6.36-2.44-6.36-6.25s2.32-6.65,6-6.64c3.51,0,5.44,2.62,5.45,6.3,0,.11,0,.43,0,.92H82A3.73,3.73,0,0,0,86,16.83Zm2.29-5.28c-.19-1.94-1.18-3.17-3-3.16s-3,1.27-3.26,3.16Z"/><path class="cls-1" d="M99.5,6.23c.07,0,.44,0,.77,0V8.94a7.88,7.88,0,0,0-.84,0c-1.94,0-3.59,1.57-3.59,4.07v5.78H93V6.63h2.71V8.37A4.33,4.33,0,0,1,99.5,6.23Z"/><path class="cls-1" d="M59.49,2.91a1.6,1.6,0,0,1,1.62-1.6,1.62,1.62,0,0,1,1.64,1.6A1.61,1.61,0,0,1,61.11,4.5,1.59,1.59,0,0,1,59.49,2.91Z"/><polygon class="cls-1" points="15.35 13.82 13.82 12.28 12.28 10.75 10.75 9.21 9.21 7.68 10.75 6.14 12.28 4.61 13.82 3.07 12.28 1.53 10.75 0 9.21 1.53 7.68 3.07 6.14 4.61 4.61 6.14 3.07 7.68 1.53 9.21 0 10.75 1.53 12.28 3.07 13.82 4.61 15.35 6.14 16.89 7.68 18.43 9.21 19.96 10.75 18.43 12.28 16.89 13.82 15.35 15.35 13.82"/><polygon class="cls-1" points="26.1 9.21 24.57 7.68 23.03 6.14 21.5 4.61 19.96 3.07 18.43 1.53 16.89 3.07 15.35 4.61 13.82 6.14 12.28 7.68 13.82 9.21 15.35 10.75 16.89 12.28 18.43 13.82 16.89 15.35 15.35 16.89 13.82 18.43 15.35 19.96 16.89 21.5 18.43 19.96 19.96 18.43 21.5 16.89 23.03 15.35 24.57 13.82 26.1 12.28 27.64 10.75 26.1 9.21"/></g></g></svg>