<svg xmlns="http://www.w3.org/2000/svg" viewBox="0 0 260 39.17"><defs><style>.cls-1{fill:#006837;}</style></defs><g id="レイヤー_2" data-name="レイヤー 2"><g id="デザイン"><path class="cls-1" d="M77.12,38H52.89V36.37h.76c1.55,0,2.56-.3,3-.91a6.21,6.21,0,0,0,.56-3.25V10.72c0-1.72-.2-2.81-.58-3.27s-1.49-.81-3.14-.81h-.62V5h23l3.24,7.76-1.27.49a22.43,22.43,0,0,0-4.9-5,11.66,11.66,0,0,0-6.6-1.86,7.06,7.06,0,0,0-3.54.6c-.76.51-1.14,1.58-1.14,3.2v9.71H64a7.37,7.37,0,0,0,4.58-1.19,6.26,6.26,0,0,0,2.06-4.23h1.57V27.26H70.61a6.48,6.48,0,0,0-2-4.38A7.32,7.32,0,0,0,64,21.63H61.69V33a3.19,3.19,0,0,0,.93,2.66,4.91,4.91,0,0,0,2.87.63q8.3,0,13.47-7.34l1.32.47Z"/><path class="cls-1" d="M100.43,32.26l1.3.87q-3.69,5.55-8.9,5.55a8.79,8.79,0,0,1-6.94-3.21A11.06,11.06,0,0,1,83.12,28a12.8,12.8,0,0,1,2.79-8.12c2.21-2.8,4.79-4.21,7.74-4.21a10.19,10.19,0,0,1,4.55,1.1q2.7,1.32,2.7,3.42c0,1.39-.67,2.08-2,2.08-1,0-1.9-.69-2.57-2.08a6.73,6.73,0,0,0-1.41-2.12,3.44,3.44,0,0,0-2.35-.76c-1.88,0-3.29,1.12-4.23,3.38a15,15,0,0,0-1,5.75A14.3,14.3,0,0,0,88.6,33a5.52,5.52,0,0,0,5.23,3.34C96.16,36.29,98.36,34.94,100.43,32.26Z"/><path class="cls-1" d="M118.51,20.69a15.51,15.51,0,0,1,1,6.11,18,18,0,0,1-1.07,6.58Q117,37.21,113.7,37.2t-4.81-3.42a14.85,14.85,0,0,1-1.18-6.24A16,16,0,0,1,108.94,21c1.09-2.46,2.73-3.69,4.94-3.69s3.66,1.13,4.63,3.38M106.2,35.07a8.73,8.73,0,0,0,7.23,3.56A9.52,9.52,0,0,0,121,35.21a11.63,11.63,0,0,0,2.82-7.9,12.32,12.32,0,0,0-2.59-7.87,8.87,8.87,0,0,0-7.28-3.58,9.45,9.45,0,0,0-7.54,3.4,12,12,0,0,0-2.73,8A12.4,12.4,0,0,0,106.2,35.07Z"/><path class="cls-1" d="M136.52,7.25a7.14,7.14,0,0,1,3.71-.65q7.05,0,7.05,7.47a7,7,0,0,1-1.81,5.17,6.91,6.91,0,0,1-5.14,1.83h-5V10.67q0-2.61,1.14-3.42m3.2,29.12h-.83c-1.5,0-2.49-.29-2.95-.89a5.81,5.81,0,0,1-.56-3.13V22.82h5.17A15.18,15.18,0,0,0,148.47,21a7.41,7.41,0,0,0,3.67-6.82,7.91,7.91,0,0,0-4-7.27A16.3,16.3,0,0,0,139.68,5H126.59V6.65h.63c1.61,0,2.65.27,3.11.8s.6,1.54.6,3.23V32.44a5.34,5.34,0,0,1-.6,3.09c-.46.56-1.44.85-2.93.85h-.81V38h13.14V36.37Z"/><path class="cls-1" d="M162.24,17.27q5.16,0,5.33,7l-10.87,0q1-7,5.54-7M164,36.19a6.66,6.66,0,0,1-5.71-2.75,10.44,10.44,0,0,1-1.76-6.26c0-.49,0-.89,0-1.18l15.13,0a11.31,11.31,0,0,0-2.49-7.16,8.34,8.34,0,0,0-6.77-3,9.1,9.1,0,0,0-7.37,3.76,12.46,12.46,0,0,0-2.93,7.92A11.22,11.22,0,0,0,155,35.39a10.13,10.13,0,0,0,7.77,3.2c3.78,0,6.92-1.7,9.39-5.1l-1-1.1C168.55,34.93,166.17,36.19,164,36.19Z"/><path class="cls-1" d="M185.16,17.27q5.15,0,5.32,7l-10.88,0q1-7,5.56-7m1.74,18.92a6.63,6.63,0,0,1-5.7-2.75,10.38,10.38,0,0,1-1.77-6.26c0-.49,0-.89,0-1.18l15.12,0a11.25,11.25,0,0,0-2.48-7.16,8.37,8.37,0,0,0-6.78-3A9.08,9.08,0,0,0,178,19.53,12.44,12.44,0,0,0,175,27.45,11.19,11.19,0,0,0,178,35.39a10.13,10.13,0,0,0,7.76,3.2q5.68,0,9.4-5.1l-1.05-1.1C191.46,34.93,189.08,36.19,186.9,36.19Z"/><path class="cls-1" d="M207.1,38h-9.39l0-1.61a3.22,3.22,0,0,0,2.6-1,6,6,0,0,0,.46-2.91V11.79A4.29,4.29,0,0,0,200.12,9a4.21,4.21,0,0,0-2.73-.92V6.87l7-2.19V32.53a7.46,7.46,0,0,0,.34,2.83c.34.63,1.14,1,2.41,1Z"/><path class="cls-1" d="M220.06,17.27q5.15,0,5.33,7l-10.88,0q1-7,5.55-7m1.74,18.92a6.63,6.63,0,0,1-5.7-2.75,10.38,10.38,0,0,1-1.77-6.26c0-.49,0-.89,0-1.18l15.12,0A11.37,11.37,0,0,0,227,18.81a8.4,8.4,0,0,0-6.78-3,9.1,9.1,0,0,0-7.36,3.76,12.44,12.44,0,0,0-2.94,7.92,11.23,11.23,0,0,0,2.91,7.94,10.15,10.15,0,0,0,7.77,3.2q5.69,0,9.39-5.1l-1-1.1C226.37,34.93,224,36.19,221.8,36.19Z"/><path class="cls-1" d="M231.89,19V17.83l7-2.15v4.86q4-5.28,7.19-5.28c1.92,0,2.88.82,2.88,2.48,0,1.31-.68,2-2.06,2a5.4,5.4,0,0,1-1.72-.42,5.7,5.7,0,0,0-1.56-.41q-2.31,0-4.64,3.76v9.84c0,1.79.28,2.9.83,3.33s1.6.56,3.47.56h.51V38H232V36.37q2.24,0,2.91-.87a5.24,5.24,0,0,0,.6-3.07v-9.7a4.19,4.19,0,0,0-.71-2.88A4.5,4.5,0,0,0,231.89,19Z"/><path class="cls-1" d="M248,2.86h4.41l.49,1.43-.26.1a7.32,7.32,0,0,0-.72-.84,1.47,1.47,0,0,0-1-.42q-.33,0-.33.3V7.79a1,1,0,0,0,.11.56.67.67,0,0,0,.54.16h.14V8.8H249V8.51h.14a.68.68,0,0,0,.53-.15,1,1,0,0,0,.11-.56V3.43q0-.3-.33-.3a1.47,1.47,0,0,0-1,.42,8.22,8.22,0,0,0-.73.84l-.25-.1Z"/><path class="cls-1" d="M258.43,7.79V3.26l-2,5.54h-.22l-2-5.47V7.42a1.44,1.44,0,0,0,.15.74.73.73,0,0,0,.63.32V8.8H253V8.48a.78.78,0,0,0,.64-.32,1.55,1.55,0,0,0,.13-.74V4a1.64,1.64,0,0,0-.07-.63c-.07-.12-.25-.19-.54-.19H253v-.3h1.7L256.5,7.6l1.73-4.74H260v.3h-.15q-.42,0-.54.18a1.46,1.46,0,0,0-.08.6V7.79a1,1,0,0,0,.1.56c.08.11.26.16.52.16H260V8.8h-2.35V8.51h.14c.27,0,.45,0,.53-.16A1,1,0,0,0,258.43,7.79Z"/><path class="cls-1" d="M15.61,20.38l-3-1.57-1-4.92C13,14.78,15.54,17.32,15.61,20.38Z"/><path class="cls-1" d="M10.94,18,9.83,13.07a7.15,7.15,0,0,0-3-1l1,4.33Z"/><path class="cls-1" d="M5.06,11.77l1.05,3.84L.59,12.84A15,15,0,0,1,5.06,11.77Z"/><path class="cls-1" d="M0,14.22l5.39,2.61L1.72,18.55A43,43,0,0,1,0,14.22Z"/><path class="cls-1" d="M2.89,19.88,7,17.77l3.28,1.72-4.84,2.8A9.67,9.67,0,0,1,2.89,19.88Z"/><path class="cls-1" d="M20.39,18.55l.16-4.22-3.94-3.5A7.41,7.41,0,0,0,20.39,18.55Z"/><path class="cls-1" d="M20.75,12.62,20.7,8.83l-3-3.28a12.75,12.75,0,0,0-.89,3.39Z"/><path class="cls-1" d="M20.81,6.82l0-6.76c-.51,1.06-1.78,2.61-2.44,4.16Z"/><path class="cls-1" d="M22.28,0V7l2.91-3.51A28.7,28.7,0,0,0,22.28,0Z"/><path class="cls-1" d="M25.89,4.78,22.32,9.06l0,3.49L27,7.83A16.85,16.85,0,0,0,25.89,4.78Z"/><path class="cls-1" d="M27.66,21l3-1.73,1.11-4.71A8.58,8.58,0,0,0,27.66,21Z"/><path class="cls-1" d="M33.24,13.79l-1,4.8,3.43-2,1.11-4.11A9.33,9.33,0,0,0,33.24,13.79Z"/><path class="cls-1" d="M38.5,12.22l-1,3.39,5.93-3.06A13.47,13.47,0,0,0,38.5,12.22Z"/><path class="cls-1" d="M44.38,13.68l-6.53,3.43,3.37,1.6A16.29,16.29,0,0,0,44.38,13.68Z"/><path class="cls-1" d="M36.33,17.88l4,2a16.93,16.93,0,0,1-3.06,2.55l-4.65-2.56Z"/><path class="cls-1" d="M31.27,20.71l4.56,2.62a6.84,6.84,0,0,1-7.61-.12l-5.67,3.08.05,12.88H21.48l.11-12.88L14.78,22.6c-2.45,1.22-4,2-7.67.5l4.72-2.83,9.82,5.23.46-10.67,5.11-5.17c.4,2.94.18,7.53-4.66,9.33l-.12,6.56Z"/></g></g></svg>