<?xml version="1.0" encoding="utf-8"?>
<!-- Generator: Adobe Illustrator 22.0.1, SVG Export Plug-In . SVG Version: 6.00 Build 0)  -->
<svg version="1.1" id="Layer_1" xmlns="http://www.w3.org/2000/svg" xmlns:xlink="http://www.w3.org/1999/xlink" x="0px" y="0px"
	 viewBox="0 0 67 67" style="enable-background:new 0 0 67 67;" xml:space="preserve">
<style type="text/css">
	.st0{fill:#FFFFFF;}
</style>
<g>
	<path class="st0" d="M31.1,47.4H16.9c0.4,1.3,1.7,2.3,3.2,2.3h11V47.4z"/>
	<g>
		<path class="st0" d="M33,66.1c-17.9,0-32.5-14.6-32.5-32.5C0.5,15.7,15.1,1.1,33,1.1s32.5,14.6,32.5,32.5
			C65.5,51.6,51,66.1,33,66.1z M33,3C16.1,3,2.4,16.7,2.4,33.6c0,16.9,13.8,30.7,30.7,30.7s30.7-13.8,30.7-30.7C63.7,16.7,50,3,33,3
			z"/>
	</g>
	<path class="st0" d="M21.6,25.9c0,0.8,0.7,1.5,1.5,1.5c0.8,0,1.5-0.7,1.5-1.5c0-0.8-0.7-1.5-1.5-1.5C22.3,24.4,21.6,25.1,21.6,25.9
		"/>
	<path class="st0" d="M23.9,29.6v9.9c1.3,0.2,2.3,1.4,2.3,2.7c0,1.5-1.3,2.8-2.8,2.8c-1.5,0-2.8-1.3-2.8-2.8c0-1.3,0.8-2.3,2-2.7V31
		h-5.9v15.1h15.7v3.6H35v-7.4h-6.2v-9.2c-1.2-0.3-2.1-1.4-2.1-2.7c0-1.5,1.3-2.8,2.8-2.8c1.5,0,2.8,1.3,2.8,2.8
		c0,1.3-0.9,2.4-2.1,2.7V41h6.2v8.7h3.6V36.9h-6.5V17.1h-3.3v9.2h-4.3c-0.2,1.3-1.3,2.4-2.7,2.4c-1.5,0-2.8-1.3-2.8-2.8
		s1.3-2.8,2.8-2.8c1.2,0,2.2,0.8,2.6,1.9h3.1v-7.9h-8.7c-1.8,0-3.3,1.5-3.3,3.3v9.2H23.9z"/>
	<path class="st0" d="M49.4,26.9h-5.1v-9.9h-9.6v18.5h6.5v14.2h3.6V36h4.6v-5H38.6v-3.9c-1.2-0.3-2.1-1.4-2.1-2.7
		c0-1.5,1.3-2.8,2.8-2.8c1.5,0,2.8,1.3,2.8,2.8c0,1.3-0.9,2.4-2.1,2.7v2.6h9.5V26.9z"/>
	<path class="st0" d="M40.7,24.4c0-0.8-0.7-1.5-1.5-1.5s-1.5,0.7-1.5,1.5c0,0.8,0.7,1.5,1.5,1.5S40.7,25.2,40.7,24.4"/>
	<path class="st0" d="M45.6,25.6h3.8v-5.2c0-1.8-1.5-3.3-3.3-3.3h-0.5V25.6z"/>
	<path class="st0" d="M46.1,37.3v12.4c1.8,0,3.2-1.5,3.2-3.3v-9.1H46.1z"/>
	<path class="st0" d="M30.9,30.4c0-0.8-0.7-1.5-1.5-1.5c-0.8,0-1.5,0.7-1.5,1.5c0,0.8,0.7,1.5,1.5,1.5
		C30.3,31.9,30.9,31.2,30.9,30.4"/>
	<path class="st0" d="M21.9,42.2c0,0.8,0.7,1.5,1.5,1.5c0.8,0,1.5-0.7,1.5-1.5c0-0.8-0.7-1.5-1.5-1.5C22.6,40.8,21.9,41.4,21.9,42.2
		"/>
</g>
</svg>
