<?xml version="1.0" encoding="utf-8"?>
<!-- Generator: Adobe Illustrator 22.0.1, SVG Export Plug-In . SVG Version: 6.00 Build 0)  -->
<svg version="1.1" id="Layer_1" xmlns="http://www.w3.org/2000/svg" xmlns:xlink="http://www.w3.org/1999/xlink" x="0px" y="0px"
	 viewBox="0 0 67 67" style="enable-background:new 0 0 67 67;" xml:space="preserve">
<style type="text/css">
	.st0{fill:#FFFFFF;}
</style>
<g>
	<g>
		<path class="st0" d="M33.2,66.3c-17.9,0-32.5-14.6-32.5-32.5c0-17.9,14.6-32.5,32.5-32.5c17.9,0,32.5,14.6,32.5,32.5
			C65.7,51.7,51.2,66.3,33.2,66.3z M33.2,3.1C16.3,3.1,2.5,16.9,2.5,33.8c0,16.9,13.8,30.7,30.7,30.7c16.9,0,30.7-13.8,30.7-30.7
			C63.9,16.9,50.2,3.1,33.2,3.1z"/>
	</g>
	<polygon class="st0" points="49.1,27.8 39.3,27.8 39.3,18.3 27.4,18.3 27.4,27.8 17.4,27.8 17.4,39.8 27.4,39.8 27.4,49.3 
		39.3,49.3 39.3,39.8 49.1,39.8 	"/>
</g>
</svg>
