<?xml version="1.0" encoding="utf-8"?>
<!-- Generator: Adobe Illustrator 22.0.1, SVG Export Plug-In . SVG Version: 6.00 Build 0)  -->
<svg version="1.1" id="Layer_1" xmlns="http://www.w3.org/2000/svg" xmlns:xlink="http://www.w3.org/1999/xlink" x="0px" y="0px"
	 viewBox="0 0 67 67" style="enable-background:new 0 0 67 67;" xml:space="preserve">
<style type="text/css">
	.st0{fill:#FFFFFF;}
</style>
<g>
	<g>
		<path class="st0" d="M33.4,66.6C15.4,66.6,0.9,52,0.9,34.1S15.4,1.6,33.4,1.6s32.5,14.6,32.5,32.5S51.3,66.6,33.4,66.6z M33.4,3.4
			C16.4,3.4,2.7,17.2,2.7,34.1s13.8,30.7,30.7,30.7S64,51,64,34.1S50.3,3.4,33.4,3.4z"/>
	</g>
	<path class="st0" d="M50.9,33.8v5.4l-6.7-6.2v-2.9h-0.4v2.6l-4.3-4v-1.7h-0.4v1.3l-1.9-1.8l-1.6-6.2c-0.2-3.5-1.5-5.1-2-5.6
		l-0.2-3.2l-0.2,3v0.2c-0.5,0.5-1.8,2-2,5.6l-1.6,6.2l-1.8,1.7v-1.2h-0.4v1.6L23,32.6v-2.4h-0.4V33l-6.9,6.3v-5.4H15v6.1h15.6v4.6
		l-7.1,4.2v1.8h8.5l0.5,0.8h0.4v0.5h0.6v-0.5h0.4l0.5-0.8h8.8v-1.8L36,44.5v-4.6h15.6v-6.1"/>
</g>
</svg>
