<?xml version="1.0" encoding="utf-8"?>
<!-- Generator: Adobe Illustrator 22.0.1, SVG Export Plug-In . SVG Version: 6.00 Build 0)  -->
<svg version="1.1" id="Layer_1" xmlns="http://www.w3.org/2000/svg" xmlns:xlink="http://www.w3.org/1999/xlink" x="0px" y="0px"
	 viewBox="0 0 67 67" style="enable-background:new 0 0 67 67;" xml:space="preserve">
<style type="text/css">
	.st0{fill:#FFFFFF;}
</style>
<g>
	<g>
		<path class="st0" d="M33.4,66.5C15.5,66.5,0.9,51.9,0.9,34S15.5,1.5,33.4,1.5S65.9,16.1,65.9,34S51.4,66.5,33.4,66.5z M33.4,3.3
			C16.5,3.3,2.7,17.1,2.7,34s13.8,30.7,30.7,30.7c16.9,0,30.7-13.8,30.7-30.7S50.4,3.3,33.4,3.3z"/>
	</g>
	<path class="st0" d="M50,35.1h-6.9c-0.2,0-0.4-0.2-0.4-0.4l0.4-1.5c0-0.2,0.2-0.4,0.4-0.4h6.1c0.2,0,0.4,0.2,0.4,0.4l0.4,1.5
		C50.4,34.9,50.2,35.1,50,35.1 M49,40.1H47c-0.5,0-0.9-0.4-0.9-1c0-0.5,0.4-1,0.9-1H49c0.5,0,0.9,0.4,0.9,1
		C49.9,39.6,49.5,40.1,49,40.1 M33.7,28.8c-2.5,0-4.9,0.2-7.4,0.4c-1.8,0.1-3.5,0.2-5.3,0.4c-0.5,0-1.1,0.1-1.7,0.1
		c0.1-0.3,0.1-0.4,0.2-0.6c0.8-2.3,1.7-4.6,2.5-6.9c0.1-0.4,0.3-0.5,0.7-0.6c3.3-0.3,6.6-0.7,10-0.9c1.8-0.1,3.6,0,5.4,0.2
		c1.7,0.1,3.4,0.3,5,0.5c0.9,0.1,1.7,0.2,2.6,0.4c0.1,0,0.3,0.2,0.4,0.3c0.9,2.5,1.8,5,2.7,7.6c0,0,0,0,0,0.2
		c-0.8-0.1-1.6-0.1-2.4-0.2c-1.8-0.1-3.6-0.3-5.4-0.4C38.6,29,36.1,28.8,33.7,28.8 M25.5,35.1h-6.9c-0.2,0-0.4-0.2-0.4-0.4l0.4-1.5
		c0-0.2,0.2-0.4,0.4-0.4h6.1c0.2,0,0.4,0.2,0.4,0.4l0.4,1.5C25.8,34.9,25.7,35.1,25.5,35.1 M21.5,40.1h-2.1c-0.5,0-0.9-0.4-0.9-1
		c0-0.5,0.4-1,0.9-1h2.1c0.5,0,0.9,0.4,0.9,1C22.4,39.6,22,40.1,21.5,40.1 M53,27.9c-0.9,0-1.7,0-2.6,0c-0.4,0-0.6-0.1-0.7-0.5
		c-0.8-2.2-1.6-4.4-2.4-6.7c-0.1-0.4-0.3-0.6-0.7-0.6c-0.6-0.1-1.2-0.2-1.8-0.3c-1.8-0.2-3.6-0.5-5.4-0.6c-1.9-0.2-3.7-0.3-5.6-0.3
		c-2.1,0-4.3,0.2-6.4,0.4c-1.9,0.2-3.8,0.5-5.7,0.7c-0.3,0-0.6,0.2-0.7,0.6c-0.8,2.3-1.6,4.5-2.5,6.8c-0.1,0.2-0.2,0.4-0.2,0.6
		c-0.3-0.1-0.6-0.2-0.8-0.2c-0.9,0-1.7,0-2.6,0c-0.6,0-1,0.3-1.2,0.9c-0.4,0.9,0.2,1.9,1.2,2c0.5,0,1,0,1.5,0l0.1,0.2
		c-0.8,0.5-0.6,1.2-0.6,1.9c0,3.1-0.8,8.9,2.7,10.2c0.2,0.1,0,4.3,0,4.7c0,0.8,0.4,1.2,1.1,1.2c0.8,0,1.5,0,2.3,0
		c0.8,0,1.2-0.4,1.2-1.3c0-1.6,0-1.8,0-3.4c0-0.5,0.1-0.6,0.5-0.6c7,0,14.1,0,21.1,0c0.5,0,0.6,0.2,0.6,0.7c0,1.7,0,1.9,0,3.6
		c0,0.7,0.3,1.1,1,1.1c0.7,0,1.5,0,2.2,0c1,0,1.3-0.3,1.3-1.4c0-0.9,0-1.8,0-2.7c0-0.4-0.2-1.7,0.2-2c1.4-0.9,2.1-1.7,2.4-3.4
		c0.3-1.4,0.2-3.1,0.3-4.5c0-1.3,0.2-3.3-0.6-3.9c0,0,0-0.1,0-0.2c0.3,0,0.7,0,1,0c0.7,0,1.3-0.7,1.3-1.5
		C54.3,28.5,53.7,27.9,53,27.9"/>
</g>
</svg>
